<svg width="192" height="192" viewBox="0 0 192 192" fill="none" xmlns="http://www.w3.org/2000/svg">
<g filter="url(#filter0_d_15_90)">
<g filter="url(#filter1_d_15_90)">
<path d="M168.51 172.814L103.697 172.813L81.3698 134.05V173.123H24V19H81.3698V25.2021C89.0191 21.0675 97.2886 19 106.179 19C113.208 19 119.772 20.2922 125.871 22.8763C131.97 25.4605 137.293 29.0268 141.842 33.575C146.597 38.3299 150.267 43.7569 152.85 49.8556C155.434 55.9544 156.727 62.5183 156.727 69.5479C156.727 76.5775 155.435 83.1409 152.85 89.2402C150.266 95.3395 146.597 100.766 141.842 105.521C139.775 107.588 136.984 109.862 133.469 112.343L168.51 172.814ZM78.5788 112.033C75.4777 110.172 72.6868 108.001 70.2059 105.52L69.8958 104.9H68.0352L78.5788 123.196V112.033ZM78.5788 104.9H73.9272L78.5788 108.621V104.9ZM78.5788 30.4746C76.3048 32.1284 74.2373 33.8857 72.3767 35.7464C68.0352 40.0879 64.624 45.153 62.1431 50.9416C59.6623 56.7303 58.4218 62.9324 58.4218 69.548C58.4218 82.159 62.6601 93.0127 71.1362 102.109H78.5788V30.4746ZM78.5788 21.7916L27.1011 21.7922V170.333H78.5788V129.089L63.0735 102.11H67.1048C63.3836 97.5615 60.4892 92.5482 58.4218 87.0691C56.3545 81.5901 55.3208 75.7502 55.3208 69.5481C55.3208 62.519 56.613 55.9551 59.1971 49.8558C61.7812 43.7565 65.4509 38.3302 70.2054 33.5752C72.6862 31.0943 75.4772 28.9236 78.5783 27.063L78.5788 21.7916ZM81.3698 102.109H127.576L131.918 109.552C133.365 108.518 134.76 107.536 136.104 106.606C137.448 105.675 138.636 104.59 139.67 103.35C144.012 99.0082 147.423 93.9431 149.904 88.1544C152.384 82.3658 153.625 76.1636 153.625 69.548C153.625 62.9324 152.384 56.7303 149.904 50.9416C147.423 45.153 144.012 40.0879 139.67 35.7464C135.329 31.4049 130.263 27.9937 124.475 25.5129C118.686 23.032 112.484 21.7916 105.868 21.7916C96.9787 21.7916 88.8125 24.0656 81.37 28.6139L81.3698 102.109ZM81.3698 110.482C88.8123 115.03 97.0818 117.304 106.178 117.304C114.655 117.304 122.407 115.237 129.436 111.102L125.715 104.9H81.3698V110.482ZM163.238 169.712L130.987 113.583C123.544 117.925 115.171 120.095 105.868 120.095C97.1852 120.095 89.0191 118.028 81.3698 113.893V128.158L105.558 169.712H163.238Z" fill="#E6BC10"/>
<path d="M85.3701 15V18.9219C91.9272 16.3076 98.8725 15 106.179 15C113.711 15 120.809 16.3875 127.432 19.1934C133.99 21.9721 139.747 25.8237 144.67 30.7461L144.671 30.7471C149.783 35.8598 153.746 41.7153 156.533 48.2949C159.339 54.9168 160.727 62.0152 160.727 69.5479C160.727 77.0804 159.339 84.1782 156.533 90.8008C153.745 97.381 149.783 103.236 144.671 108.349V108.35C143.041 109.98 141.051 111.676 138.729 113.444L171.971 170.808L175.451 176.813H168.51L103.697 176.812H101.386L100.231 174.81L85.3701 149.009V177.123H20V15H85.3701ZM31.1006 166.333H74.5791V130.157L59.6055 104.103L56.1611 98.1094H59.376C57.5194 95.064 55.9524 91.8545 54.6797 88.4814C52.4322 82.5249 51.3203 76.2037 51.3203 69.5479C51.3203 62.0159 52.7079 54.9174 55.5137 48.2949C58.3017 41.7146 62.2647 35.8599 67.377 30.7471L67.8906 30.2412C69.5511 28.6318 71.3324 27.1497 73.2305 25.792H31.1006V166.333ZM129.444 118.928C122.269 122.385 114.389 124.096 105.868 124.096C98.7173 124.096 91.8763 122.787 85.3701 120.181V127.078L107.857 165.713H156.326L129.444 118.928ZM86.7705 108.9C92.677 111.831 99.1276 113.305 106.179 113.305C112.543 113.305 118.41 112.041 123.828 109.531L123.45 108.9H86.7705ZM105.868 25.792C98.4593 25.792 91.648 27.5013 85.3701 30.9209V98.1094H129.874L131.031 100.094L133.176 103.771C133.394 103.618 133.611 103.467 133.827 103.317C134.877 102.59 135.797 101.748 136.597 100.789L136.713 100.649L136.842 100.521C140.814 96.5493 143.941 91.9121 146.227 86.5791C148.483 81.3133 149.625 75.6496 149.625 69.5479C149.625 63.4462 148.483 57.7833 146.227 52.5176C143.941 47.1845 140.814 42.5475 136.842 38.5752C132.87 34.6029 128.233 31.4751 122.899 29.1895C117.634 26.9327 111.97 25.792 105.868 25.792ZM74.5791 39.2148C70.9031 43.0429 67.9834 47.468 65.8193 52.5176C63.5627 57.7832 62.4219 63.4463 62.4219 69.5479C62.4219 80.5785 65.9102 90.038 72.9209 98.1094H74.5791V39.2148Z" stroke="#FFDD00" stroke-width="8"/>
</g>
</g>
<defs>
<filter id="filter0_d_15_90" x="12" y="11" width="174.392" height="178.123" filterUnits="userSpaceOnUse" color-interpolation-filters="sRGB">
<feFlood flood-opacity="0" result="BackgroundImageFix"/>
<feColorMatrix in="SourceAlpha" type="matrix" values="0 0 0 0 0 0 0 0 0 0 0 0 0 0 0 0 0 0 127 0" result="hardAlpha"/>
<feOffset dy="4"/>
<feGaussianBlur stdDeviation="2"/>
<feComposite in2="hardAlpha" operator="out"/>
<feColorMatrix type="matrix" values="0 0 0 0 0 0 0 0 0 0 0 0 0 0 0 0 0 0 0.25 0"/>
<feBlend mode="normal" in2="BackgroundImageFix" result="effect1_dropShadow_15_90"/>
<feBlend mode="normal" in="SourceGraphic" in2="effect1_dropShadow_15_90" result="shape"/>
</filter>
<filter id="filter1_d_15_90" x="12" y="11" width="174.392" height="178.123" filterUnits="userSpaceOnUse" color-interpolation-filters="sRGB">
<feFlood flood-opacity="0" result="BackgroundImageFix"/>
<feColorMatrix in="SourceAlpha" type="matrix" values="0 0 0 0 0 0 0 0 0 0 0 0 0 0 0 0 0 0 127 0" result="hardAlpha"/>
<feOffset dy="4"/>
<feGaussianBlur stdDeviation="2"/>
<feComposite in2="hardAlpha" operator="out"/>
<feColorMatrix type="matrix" values="0 0 0 0 0 0 0 0 0 0 0 0 0 0 0 0 0 0 0.25 0"/>
<feBlend mode="normal" in2="BackgroundImageFix" result="effect1_dropShadow_15_90"/>
<feBlend mode="normal" in="SourceGraphic" in2="effect1_dropShadow_15_90" result="shape"/>
</filter>
</defs>
</svg>
